<?xml version="1.0" encoding="utf-8"?>
<!-- Generator: Adobe Illustrator 15.1.0, SVG Export Plug-In . SVG Version: 6.00 Build 0)  -->
<!DOCTYPE svg PUBLIC "-//W3C//DTD SVG 1.1//EN" "http://www.w3.org/Graphics/SVG/1.1/DTD/svg11.dtd">
<svg version="1.1" id="Layer_1" xmlns="http://www.w3.org/2000/svg" xmlns:xlink="http://www.w3.org/1999/xlink" x="0px" y="0px"
	 width="320.408px" height="123.469px" viewBox="0 0 320.408 123.469" enable-background="new 0 0 320.408 123.469"
	 xml:space="preserve">
<g enable-background="new    ">
	<path fill="#3C3C3B" d="M74.779,19.01c2.34,1.965,4.286,4.265,5.843,6.898c1.554,2.637,2.794,5.448,3.718,8.438
		c0.922,2.992,1.553,6.07,1.89,9.231c0.336,3.164,0.395,6.26,0.18,9.289c0.084,0.958-0.443,1.484-1.578,1.583
		c-1.138,0.099-1.745-0.328-1.829-1.286c0.098-3.019-0.03-6.199-0.382-9.543c-0.354-3.339-1.084-6.528-2.189-9.565
		c-1.11-3.034-2.708-5.817-4.795-8.345c-2.09-2.527-4.706-4.557-7.85-6.09c-4.533-2.252-9.238-3.015-14.112-2.29
		c-4.878,0.727-9.277,3.429-13.204,8.11c-2.402,2.86-4.352,6.043-5.853,9.545c-1.501,3.504-2.684,7.222-3.543,11.15
		c-0.862,3.931-1.477,7.928-1.844,11.996c-0.367,4.068-0.558,8.089-0.572,12.064c7.89-0.688,15.657-1.034,23.308-1.042
		c7.647-0.003,14.98,0.17,21.998,0.519c0.835-0.073,1.305,0.46,1.404,1.594c0.1,1.138-0.271,1.741-1.106,1.813
		c-7.963-0.146-15.508,0.03-22.63,0.531c-7.124,0.504-14.63,1.096-22.52,1.785c4.492,1.775,8.761,4.113,12.809,7.013
		c4.048,2.898,7.348,6.225,9.905,9.976c2.556,3.752,4.146,7.832,4.772,12.23c0.624,4.401-0.293,9.061-2.755,13.974
		c-0.93,1.767-2.032,2.946-3.305,3.54c-1.275,0.592-2.643,0.773-4.108,0.541c-1.466-0.234-2.93-0.77-4.386-1.605
		c-1.46-0.838-2.778-1.808-3.958-2.907c-1.832-1.646-3.49-3.399-4.977-5.257c-1.489-1.856-2.819-3.999-3.994-6.428
		c-1.178-2.426-2.176-5.257-3.001-8.5c-0.825-3.239-1.492-7.065-1.996-11.479l-0.846-9.684c-1.748-0.688-3.42-1.207-5.014-1.551
		c-1.597-0.34-3.829-0.388-6.698-0.137l-6.813,0.595c-0.6,0.052-0.951-0.188-1.057-0.721c-0.108-0.532-0.009-1.144,0.292-1.833
		c0.301-0.687,0.756-1.33,1.367-1.926c0.608-0.596,1.392-0.935,2.351-1.018l15.601-1.363c0.459-4.377,1.049-9.003,1.769-13.887
		c0.717-4.878,1.75-9.607,3.098-14.182c1.346-4.572,3.083-8.82,5.211-12.742c2.125-3.918,4.828-7.107,8.109-9.562
		c2.471-2.022,5.144-3.489,8.017-4.403c2.871-0.912,5.785-1.319,8.747-1.216c2.96,0.104,5.868,0.662,8.729,1.677
		C69.84,15.558,72.44,17.047,74.779,19.01z M53.232,111.595c0.554-3.3,0.238-6.587-0.95-9.854c-1.188-3.267-2.965-6.336-5.32-9.202
		c-2.36-2.865-5.087-5.487-8.186-7.866c-3.1-2.378-6.224-4.335-9.367-5.868c-0.498,5.346-0.282,10.206,0.642,14.579
		c0.925,4.378,2.656,8.684,5.193,12.918c0.832,1.252,2.033,2.953,3.608,5.105c1.571,2.148,3.257,3.871,5.058,5.158
		c1.798,1.289,3.551,1.706,5.26,1.258C50.875,117.372,52.229,115.296,53.232,111.595z"/>
	<path fill="#3C3C3B" d="M125.589,64.985c0.749,0.295,1.145,0.685,1.187,1.161c0.042,0.479-0.132,0.915-0.519,1.31
		c-0.389,0.395-0.934,0.686-1.641,0.865c-0.707,0.184-1.43,0.188-2.168,0.01c-2.963-0.826-5.484-1.418-7.562-1.779
		c-2.082-0.36-3.962-0.525-5.646-0.5c-1.686,0.027-3.204,0.221-4.557,0.577c-1.355,0.361-2.728,0.844-4.12,1.444
		c-3.471,1.631-6.401,3.603-8.788,5.917c-2.39,2.318-4.489,4.819-6.301,7.507c-1.815,2.688-3.406,5.479-4.78,8.367
		c-1.373,2.893-2.789,5.664-4.242,8.322c-0.885,0.92-1.66,1.35-2.327,1.286c-0.668-0.06-1.074-0.929-1.221-2.604
		c-0.292-3.346-0.54-6.187-0.744-8.518c-0.203-2.331-0.419-4.449-0.646-6.358c-0.229-1.906-0.475-3.691-0.739-5.355
		c-0.266-1.662-0.548-3.504-0.844-5.527c-0.041-0.477,0.16-0.918,0.607-1.317c0.445-0.401,0.996-0.657,1.649-0.776
		c0.65-0.117,1.263-0.02,1.832,0.291c0.569,0.312,0.901,1.005,0.995,2.081c0.083,0.958,0.19,2.183,0.321,3.677
		c0.13,1.496,0.24,3.112,0.333,4.849c0.09,1.739,0.215,3.505,0.372,5.298c0.156,1.793,0.297,3.407,0.423,4.842
		c2.127-5.969,4.901-11.117,8.317-15.453c3.416-4.332,7.284-7.621,11.605-9.866c4.321-2.243,8.948-3.371,13.888-3.381
		C115.212,61.345,120.318,62.554,125.589,64.985z"/>
	<path fill="#3C3C3B" d="M205.657,59.076c1.044-0.452,1.731-0.512,2.062-0.18c0.328,0.332,0.49,0.801,0.483,1.403
		c-0.009,0.605-0.19,1.281-0.545,2.036c-0.357,0.754-0.77,1.213-1.235,1.372c-1.851,0.884-4.03,1.798-6.537,2.739
		c-2.509,0.941-5.049,1.858-7.62,2.743c-2.573,0.888-5.067,1.647-7.479,2.278c-2.415,0.636-4.448,1.143-6.101,1.528
		c1.159,3.633,1.3,6.603,0.417,8.907c-0.883,2.307-2.289,4.146-4.216,5.518c-1.93,1.373-4.195,2.325-6.798,2.852
		c-2.604,0.529-4.987,0.828-7.149,0.896c-3.966,0.105-7.917-0.303-11.851-1.224c-3.938-0.922-7.616-2.376-11.042-4.366
		c-3.426-1.988-6.513-4.55-9.253-7.685c-2.744-3.131-4.902-6.8-6.472-10.998c-2.166-5.472-3.167-11.076-3.004-16.813
		c0.159-5.733,0.94-10.95,2.337-15.652c0.372-1.235,0.946-2.612,1.717-4.125c0.771-1.514,1.707-2.86,2.81-4.041
		c1.1-1.18,2.361-1.922,3.78-2.227c1.419-0.304,2.903,0.138,4.453,1.328c1.039,0.875,2.137,2.071,3.295,3.597
		c1.155,1.526,2.268,3.207,3.332,5.039c1.063,1.836,2.039,3.707,2.929,5.618c0.89,1.909,1.641,3.623,2.256,5.132
		c1.71,4.429,3.16,9.3,4.348,14.618c1.187,5.316,1.989,10.368,2.406,15.147c0.031,0.358-0.088,0.731-0.354,1.115
		c-0.269,0.385-0.609,0.626-1.021,0.722c-0.414,0.098-0.781,0.04-1.099-0.176c-0.321-0.211-0.512-0.678-0.574-1.395
		c-0.282-3.229-0.798-6.705-1.544-10.436c-0.749-3.729-1.738-7.496-2.975-11.304c-1.235-3.806-2.728-7.441-4.475-10.902
		c-1.748-3.461-3.7-6.481-5.852-9.065c-0.672-0.784-1.268-1.394-1.786-1.832c-0.521-0.434-1.06-0.749-1.617-0.943
		c-0.56-0.191-1.069-0.147-1.524,0.133c-1.71,1.115-3.003,3.216-3.877,6.302c-0.876,3.088-1.427,6.419-1.657,9.992
		c-0.229,3.574-0.132,7.12,0.296,10.634c0.426,3.518,1.089,6.261,1.984,8.229c3.374,6.933,7.846,11.935,13.416,15
		c5.566,3.067,11.2,4.835,16.904,5.299c1.573,0.105,3.589,0.078,6.046-0.077c2.454-0.151,4.585-0.581,6.394-1.28
		c1.805-0.7,2.948-1.73,3.433-3.101c0.482-1.366-0.338-3.161-2.458-5.388c-0.421-0.686-0.606-1.42-0.555-2.209
		c0.051-0.786,0.262-1.468,0.636-2.043c0.37-0.574,0.808-1.093,1.309-1.56c0.502-0.465,0.932-0.714,1.29-0.745
		c1.772-0.395,3.924-0.914,6.459-1.559c2.533-0.643,5.268-1.392,8.205-2.251c2.935-0.858,5.951-1.845,9.047-2.959
		C200.125,61.609,202.999,60.392,205.657,59.076z"/>
	<path fill="#3C3C3B" d="M245.562,4.999c-1.38-0.602-3.145-0.476-5.298,0.373c-2.156,0.852-4.367,2.069-6.637,3.651
		c-2.272,1.585-4.466,3.372-6.578,5.362c-2.117,1.992-3.822,3.829-5.121,5.507c-5.057,6.946-8.562,13.367-10.514,19.257
		c-1.956,5.893-2.771,12.076-2.446,18.553c0.494,4.292,1.809,7.61,3.941,9.955c2.13,2.343,4.601,4.055,7.405,5.134
		c2.804,1.083,5.718,1.701,8.744,1.857c3.023,0.159,5.731,0.132,8.124-0.077c5.391-0.35,10.582-1.224,15.581-2.625
		c4.996-1.399,9.753-3.14,14.27-5.222c4.517-2.081,8.736-4.436,12.662-7.069c3.927-2.629,7.453-5.348,10.581-8.151
		c0.328-0.39,0.78-0.7,1.364-0.932c0.581-0.231,1.111-0.369,1.591-0.41c0.476-0.042,0.789,0.084,0.936,0.371
		c0.144,0.289,0.004,0.753-0.421,1.392c-1.497,2.18-3.728,4.572-6.69,7.179c-2.966,2.608-6.166,4.906-9.606,6.892
		c-4.367,2.431-8.346,4.464-11.935,6.103c-3.592,1.64-6.967,2.987-10.126,4.045c-3.16,1.061-6.192,1.867-9.094,2.42
		c-2.904,0.557-5.789,0.957-8.658,1.208c-5.271,0.343-10.456-0.049-15.551-1.171c-5.098-1.119-9.193-3.533-12.286-7.238
		c-1.753-2.135-3.071-4.457-3.951-6.973c-0.883-2.512-1.431-4.993-1.645-7.445c-0.214-2.448-0.215-4.86,0.002-7.228
		c0.213-2.368,0.592-4.597,1.131-6.694c1.146-4.798,2.924-9.62,5.332-14.469c2.405-4.846,5.253-9.16,8.536-12.941
		c1.09-1.298,2.52-2.868,4.286-4.711c1.765-1.839,3.784-3.551,6.056-5.136c2.271-1.582,4.74-2.944,7.414-4.081
		c2.67-1.137,5.506-1.774,8.505-1.917c2.891-0.01,4.926,0.896,6.109,2.718c1.182,1.826,1.58,3.958,1.191,6.4
		c-0.332,1.717-1.182,4.05-2.551,6.999c-1.367,2.952-3.197,6.151-5.484,9.603c-2.291,3.453-4.965,6.969-8.023,10.548
		c-3.061,3.582-6.384,6.914-9.968,9.996c-1.909,1.611-3.586,2.39-5.036,2.336c-1.45-0.054-1.679-0.604-0.687-1.656
		c4.426-4.48,8.39-9.103,11.889-13.867c3.497-4.76,6.339-9.136,8.521-13.121c2.182-3.984,3.635-7.333,4.362-10.048
		C246.516,6.966,246.439,5.407,245.562,4.999z"/>
</g>
<g enable-background="new    ">
	<path fill="#D19341" d="M309.76,71.848c1.193-0.104,2.227-0.014,3.096,0.271c0.866,0.285,1.478,1.076,1.833,2.369
		c0.181,0.707-0.315,1.564-1.492,2.569c-1.177,1.007-2.624,1.345-4.338,1.012c-1.097-0.145-1.951-0.612-2.562-1.403
		c-0.61-0.787-0.955-1.633-1.033-2.529s0.12-1.727,0.595-2.49c0.476-0.765,1.252-1.194,2.327-1.288
		c0.477-0.042,0.923,0.222,1.334,0.786C309.657,71.376,309.739,71.61,309.76,71.848z"/>
</g>
</svg>
